# xmcd
#
# Track frame offsets: 
#        150
#        18277
#        34310
#        50029
#        65741
#        83315
#        104110
#        117597
#        129985
#        147829
#        168494
#        183844
#
# Disc length: 2655 seconds
#
# Revision: 0
# Processed by: cddbd v1.5.2PL0 Copyright (c) Steve Scherf et al.
# Submitted via: ExactAudioCopyFreeDBPlugin 1.0
#
DISCID=a70a5d0c
DTITLE=Jibbs - Jibbs Feat. Jibbs
DYEAR=2006
DGENRE=Rap
TTITLE0=Yeah Boii
TTITLE1=Smile Feat. Fado
TTITLE2=Chain Hang Low
TTITLE3=Big Big Kid
TTITLE4=Let's Be Real Feat. J. Valentine
TTITLE5=King Kong Feat. Chamillionaire
TTITLE6=Hood
TTITLE7=Go Gurl
TTITLE8=Go Too Far Feat. Melody Thornton
TTITLE9=I'm A Rhino
TTITLE10=Bring It Back
TTITLE11=Firr Az That Thang
EXTD=
EXTT0=
EXTT1=
EXTT2=
EXTT3=
EXTT4=
EXTT5=
EXTT6=
EXTT7=
EXTT8=
EXTT9=
EXTT10=
EXTT11=
PLAYORDER=
